<svg xmlns="http://www.w3.org/2000/svg" viewBox="0 0 1463.73 980.03"><defs><style>.cls-1{fill:none;stroke:#ea166f;stroke-miterlimit:10;stroke-width:8px;}</style></defs><g id="Layer_2" data-name="Layer 2"><g id="Layer_1-2" data-name="Layer 1"><line class="cls-1" x1="2.64" y1="3.06" x2="1111.04" y2="977.02"/><line class="cls-1" x1="36.94" y1="3.06" x2="1127.71" y2="960.35"/><line class="cls-1" x1="71.25" y1="3.06" x2="1144.38" y2="943.68"/><line class="cls-1" x1="105.55" y1="3.06" x2="1161.05" y2="927.01"/><line class="cls-1" x1="139.85" y1="3.06" x2="1177.72" y2="910.34"/><line class="cls-1" x1="174.16" y1="3.06" x2="1194.4" y2="893.66"/><line class="cls-1" x1="208.46" y1="3.06" x2="1211.07" y2="876.99"/><line class="cls-1" x1="242.76" y1="3.06" x2="1227.74" y2="860.32"/><line class="cls-1" x1="277.07" y1="3.06" x2="1244.41" y2="843.65"/><line class="cls-1" x1="311.37" y1="3.06" x2="1261.08" y2="826.98"/><line class="cls-1" x1="345.67" y1="3.06" x2="1277.76" y2="810.3"/><line class="cls-1" x1="379.98" y1="3.06" x2="1294.43" y2="793.63"/><line class="cls-1" x1="414.28" y1="3.06" x2="1311.1" y2="776.96"/><line class="cls-1" x1="448.58" y1="3.06" x2="1327.77" y2="760.29"/><line class="cls-1" x1="482.89" y1="3.06" x2="1344.44" y2="743.62"/><line class="cls-1" x1="517.19" y1="3.06" x2="1361.11" y2="726.94"/><line class="cls-1" x1="551.49" y1="3.06" x2="1377.79" y2="710.27"/><line class="cls-1" x1="585.79" y1="3.06" x2="1394.46" y2="693.6"/><line class="cls-1" x1="620.1" y1="3.06" x2="1411.13" y2="676.93"/><line class="cls-1" x1="654.4" y1="3.06" x2="1427.8" y2="660.26"/><line class="cls-1" x1="688.7" y1="3.06" x2="1444.47" y2="643.58"/><line class="cls-1" x1="723.01" y1="3.06" x2="1461.15" y2="626.91"/></g></g></svg>